HIERARCHY
ROOT SpineBase
{
  OFFSET 0.000000 0.000000 0.000000
  CHANNELS 6 Xposition Yposition Zposition Zrotation Xrotation Yrotation
  JOINT SpineMid
  {
    OFFSET 0.000000 31.636196 0.000000
    CHANNELS 3 Zrotation Xrotation Yrotation
    JOINT SpineShoulder
    {
      OFFSET -0.149836 23.987530 -0.766926
      CHANNELS 3 Zrotation Xrotation Yrotation
      JOINT Neck
      {
        OFFSET -0.159571 8.070999 -0.557106
        CHANNELS 3 Zrotation Xrotation Yrotation
        JOINT Head
        {
          OFFSET -1.639163 9.102023 5.606140
          CHANNELS 3 Zrotation Xrotation Yrotation
          End Site
          {
            OFFSET 0 0 0
          }
        }
      }
      JOINT ShoulderLeft
      {
        OFFSET -11.718484 -9.315415 -13.995710
        CHANNELS 3 Zrotation Xrotation Yrotation
        JOINT ElbowLeft
        {
          OFFSET -1.453482 -30.671836 -0.554340
          CHANNELS 3 Zrotation Xrotation Yrotation
          JOINT WristLeft
          {
            OFFSET -0.141767 -28.447512 6.321951
            CHANNELS 3 Zrotation Xrotation Yrotation
            JOINT HandLeft
            {
              OFFSET 1.698571 -1.972950 1.658154
              CHANNELS 3 Zrotation Xrotation Yrotation
              JOINT HandTipLeft
              {
                OFFSET -1.458907 -8.853955 3.451359
                CHANNELS 3 Zrotation Xrotation Yrotation
                End Site
                {
                  OFFSET 0 0 0
                }
              }
              JOINT ThumbLeft
              {
                OFFSET 2.350962 -2.294306 -3.279719
                CHANNELS 3 Zrotation Xrotation Yrotation
                End Site
                {
                  OFFSET 0 0 0
                }
              }
            }
          }
        }
      }
      JOINT ShoulderRight
      {
        OFFSET -1.371537 -2.860065 -11.643780
        CHANNELS 3 Zrotation Xrotation Yrotation
        JOINT ElbowRight
        {
          OFFSET -9.819983 -23.549831 -5.559668
          CHANNELS 3 Zrotation Xrotation Yrotation
          JOINT WristRight
          {
            OFFSET -5.440645 -29.824470 7.712093
            CHANNELS 3 Zrotation Xrotation Yrotation
            JOINT HandRight
            {
              OFFSET 0.109922 -6.896388 1.877229
              CHANNELS 3 Zrotation Xrotation Yrotation
              JOINT HandTipRight
              {
                OFFSET -0.699174 -6.292216 1.445807
                CHANNELS 3 Zrotation Xrotation Yrotation
                End Site
                {
                  OFFSET 0 0 0
                }
              }
              JOINT ThumbRight
              {
                OFFSET 4.166142 -0.674342 -2.490411
                CHANNELS 3 Zrotation Xrotation Yrotation
                End Site
                {
                  OFFSET 0 0 0
                }
              }
            }
          }
        }
      }
    }
  }
  JOINT HipLeft
  {
    OFFSET -6.411876 2.397320 -3.917083
    CHANNELS 3 Zrotation Xrotation Yrotation
    JOINT KneeLeft
    {
      OFFSET 1.907570 -42.598596 1.384510
      CHANNELS 3 Zrotation Xrotation Yrotation
      JOINT AnkleLeft
      {
        OFFSET 9.167217 -39.542071 5.937059
        CHANNELS 3 Zrotation Xrotation Yrotation
        JOINT FootLeft
        {
          OFFSET 1.393088 -2.752716 -12.719745
          CHANNELS 3 Zrotation Xrotation Yrotation
          End Site
          {
            OFFSET 0 0 0
          }
        }
      }
    }
  }
  JOINT HipRight
  {
    OFFSET 4.121634 0.116628 -3.213734
    CHANNELS 3 Zrotation Xrotation Yrotation
    JOINT KneeRight
    {
      OFFSET 6.198693 -41.242212 12.568956
      CHANNELS 3 Zrotation Xrotation Yrotation
      JOINT AnkleRight
      {
        OFFSET -1.690829 -35.233799 1.822244
        CHANNELS 3 Zrotation Xrotation Yrotation
        JOINT FootRight
        {
          OFFSET -11.507477 -2.164355 -5.821802
          CHANNELS 3 Zrotation Xrotation Yrotation
          End Site
          {
            OFFSET 0 0 0
          }
        }
      }
    }
  }
}
MOTION
Frames: 14
Frame Time: 0.033333
102.608447 88.597653 342.291446 -0.000000 0.000000 -3.820114 -0.000000 0.000000 3.820114 -0.000000 0.000000 0.000000 -0.000000 0.000000 0.000000 0.000000 0.000000 0.000000 -0.000000 0.000000 0.000000 -0.000000 0.000000 0.000000 -0.000000 0.000000 0.000000 -0.000000 0.000000 0.000000 0.000000 0.000000 0.000000 0.000000 0.000000 0.000000 -0.000000 0.000000 0.000000 -0.000000 0.000000 0.000000 -0.000000 0.000000 0.000000 -0.000000 0.000000 0.000000 0.000000 0.000000 0.000000 0.000000 0.000000 0.000000 -0.000000 0.000000 3.820114 -0.000000 0.000000 0.000000 -0.000000 0.000000 0.000000 0.000000 0.000000 0.000000 -0.000000 0.000000 3.820114 -0.000000 0.000000 0.000000 -0.000000 0.000000 0.000000 0.000000 0.000000 0.000000
102.546469 87.740081 342.643002 -0.027360 -0.143629 -9.194636 0.004058 0.146156 9.194597 -0.000000 0.000000 0.000000 -0.000000 0.000000 0.000000 0.000000 0.000000 0.000000 -0.889439 -0.337285 0.029431 0.889628 0.336788 -0.034664 -2.616266 8.659884 5.960215 2.686233 -6.693878 -5.586176 0.000000 0.000000 0.000000 0.000000 0.000000 0.000000 -0.000000 0.000000 0.000000 -0.000000 0.000000 0.000000 -0.650658 -0.964269 -0.197524 -1.110987 -0.390712 -0.058429 0.000000 0.000000 0.000000 0.000000 0.000000 0.000000 0.783609 -0.827514 9.170580 -2.954751 2.662698 0.126543 2.565011 -1.513855 -0.992166 0.000000 0.000000 0.000000 -0.657337 1.227487 9.232678 2.480034 -2.777673 0.224179 -1.878545 2.052113 -2.801355 0.000000 0.000000 0.000000
102.464820 86.979961 342.969084 -0.067371 -0.266910 -13.907306 0.001244 0.275279 13.907146 -0.000000 0.000000 0.000000 -0.953141 -0.617419 0.473024 0.000000 0.000000 0.000000 -1.806392 -0.782806 0.057369 1.807343 0.780608 -0.082024 -6.689229 17.512842 12.867582 5.477255 -14.132277 -10.777240 0.000000 0.000000 0.000000 0.000000 0.000000 0.000000 0.444226 0.922933 -0.493168 -1.389855 -1.047829 0.243890 -0.172699 -1.513044 -0.122011 -1.688252 -0.689537 -0.050117 0.000000 0.000000 0.000000 0.000000 0.000000 0.000000 1.681906 -1.430332 13.871597 -5.346301 4.804607 0.344877 4.369867 -2.855175 -1.170873 0.000000 0.000000 0.000000 -1.417998 2.304154 14.015990 4.498655 -5.120034 0.496682 -3.377169 3.549266 -4.604455 0.000000 0.000000 0.000000
102.363500 86.317293 343.269692 -0.119726 -0.371600 -17.977604 -0.000811 0.390410 17.977219 -0.000000 0.000000 0.000000 -1.374992 -0.801142 0.697540 0.000000 0.000000 0.000000 -2.705495 -1.332319 0.080509 2.708091 1.327031 -0.143340 -11.627928 24.802391 19.669181 8.276577 -20.754882 -14.433759 0.000000 0.000000 0.000000 0.000000 0.000000 0.000000 0.365823 1.079546 -0.539495 -1.582588 -1.197426 0.210324 -0.221526 -1.904154 -0.153026 -1.910200 -1.005436 -0.007614 0.000000 0.000000 0.000000 0.000000 0.000000 0.000000 2.612563 -1.802218 17.938769 -7.138574 6.386016 0.570991 5.382146 -4.033461 -0.530806 0.000000 0.000000 0.000000 -2.212166 3.245436 18.188079 6.039656 -7.012012 0.756322 -4.504371 4.500275 -5.507475 0.000000 0.000000 0.000000
102.242508 85.752076 343.544827 -0.184303 -0.459109 -21.450385 0.003646 0.494707 21.449631 -0.000000 0.000000 0.000000 -1.763176 -0.902521 0.916608 0.000000 0.000000 0.000000 -3.533537 -1.968837 0.096344 3.538913 1.959148 -0.217610 -16.037600 29.399141 24.748507 11.040648 -25.241296 -15.872906 0.000000 0.000000 0.000000 0.000000 0.000000 0.000000 0.091462 1.039389 -0.455021 -1.434298 -1.098171 0.088268 -0.272083 -2.072489 -0.165867 -1.861609 -1.400216 0.055955 0.000000 0.000000 0.000000 0.000000 0.000000 0.000000 3.504304 -1.953072 21.411740 -8.288234 7.374469 0.735675 5.563721 -5.087278 1.011154 0.000000 0.000000 0.000000 -2.981997 4.073282 21.790350 7.087153 -8.443827 0.950505 -5.263509 4.910962 -5.566723 0.000000 0.000000 0.000000
102.101845 85.284312 343.794488 -0.261145 -0.530556 -24.380551 0.018852 0.591041 24.379245 -0.000000 0.000000 0.000000 -2.119495 -0.921648 1.131905 0.000000 0.000000 0.000000 -4.237798 -2.663036 0.104159 4.247174 2.648040 -0.300914 -18.568151 31.194783 26.759568 13.476273 -27.162879 -15.223532 0.000000 0.000000 0.000000 0.000000 0.000000 0.000000 -0.374067 0.805356 -0.244152 -0.943330 -0.755805 -0.119088 -0.332074 -2.019414 -0.160994 -1.569600 -1.913726 0.141668 0.000000 0.000000 0.000000 0.000000 0.000000 0.000000 4.300852 -1.902976 24.340827 -8.745555 7.738176 0.789536 4.870142 -6.088416 3.637147 0.000000 0.000000 0.000000 -3.681603 4.810922 24.873411 7.626584 -9.406507 1.036600 -5.653069 4.780343 -4.795172 0.000000 0.000000 0.000000
101.958454 84.853044 344.049266 -0.313144 -0.609613 -27.540275 -0.004200 0.685322 27.538634 -0.000000 0.000000 0.000000 -2.556260 -0.626238 1.458660 0.000000 0.000000 0.000000 -4.380092 -3.304124 0.109288 4.393622 3.286097 -0.361770 -19.023638 32.026309 28.197420 14.258171 -28.559414 -15.101435 0.000000 0.000000 0.000000 0.000000 0.000000 0.000000 -1.448718 0.326246 0.208875 0.475816 -0.048862 -0.505963 -0.526565 -1.698484 -0.153023 0.070642 -2.302892 0.480893 0.000000 0.000000 0.000000 0.000000 0.000000 0.000000 5.043300 -1.423134 27.496844 -8.093464 6.829847 0.578915 1.664812 -8.432433 13.569117 0.000000 0.000000 0.000000 -4.424744 5.550137 28.240095 7.537837 -9.862301 0.939064 -4.939481 3.471669 -2.553389 0.000000 0.000000 0.000000
101.823847 84.673612 344.243440 -0.355435 -0.644020 -29.661486 -0.009838 0.735523 29.659552 -0.000000 0.000000 0.000000 -2.976252 -0.463048 1.750545 0.000000 0.000000 0.000000 -4.334586 -3.621967 0.112818 4.350321 3.603042 -0.386831 -14.287303 27.751178 22.844734 13.041155 -22.944918 -13.250888 0.000000 0.000000 0.000000 0.000000 0.000000 0.000000 -2.334921 -0.424280 0.714127 1.669922 0.850400 -0.979857 -0.379425 -0.636123 -0.041959 3.308390 -4.201337 1.362824 0.000000 0.000000 0.000000 0.000000 0.000000 0.000000 5.307568 -1.193591 29.607238 -5.931516 5.273328 0.291287 -1.754474 -9.847919 21.757648 0.000000 0.000000 0.000000 -5.264370 6.261232 30.556054 7.854397 -10.662105 0.968249 -6.527724 3.375669 0.630371 0.000000 0.000000 0.000000
101.592301 84.518081 344.404567 -0.514971 -0.664912 -31.415153 0.092933 0.835856 31.411487 -0.000000 0.000000 0.000000 -3.260439 -0.371794 1.944851 0.000000 0.000000 0.000000 -5.085648 -4.415674 0.104985 5.108743 4.388915 -0.497074 -11.805987 20.260107 12.808596 14.940440 -15.781473 -5.677844 0.000000 0.000000 0.000000 0.000000 0.000000 0.000000 -2.944808 -1.143221 1.133191 2.967370 1.083265 -1.190635 -0.590674 1.315731 -0.133459 1.914435 -4.484890 0.864293 0.000000 0.000000 0.000000 0.000000 0.000000 0.000000 5.672101 -0.824858 31.344099 -3.909304 4.316153 0.214225 -4.342648 -10.797067 25.632790 0.000000 0.000000 0.000000 -5.707138 6.837199 32.496908 7.822171 -10.898648 0.883930 -6.628893 2.761243 1.370334 0.000000 0.000000 0.000000
101.312220 84.449342 344.535709 -0.738763 -0.671175 -31.741981 0.275222 0.959418 31.735350 -0.000000 0.000000 0.000000 -3.250517 -0.204894 1.971946 0.000000 0.000000 0.000000 -5.341089 -4.967974 0.100159 5.369735 4.936985 -0.563687 -11.021765 15.863007 7.482451 15.304330 -14.721339 -1.116932 0.000000 0.000000 0.000000 0.000000 0.000000 0.000000 -2.996237 -1.718106 1.368912 2.347873 2.000042 -1.677783 0.495905 2.179844 0.235123 3.711770 -6.488406 1.534158 0.000000 0.000000 0.000000 0.000000 0.000000 0.000000 5.856692 -0.349712 31.656437 -4.070227 4.040437 0.192824 -4.294215 -11.039226 25.452946 0.000000 0.000000 0.000000 -5.223677 7.287658 32.996566 6.541165 -9.851752 0.412768 -7.740761 2.008825 3.615507 0.000000 0.000000 0.000000
101.056816 84.438318 344.624311 -0.935833 -0.634265 -30.829190 0.271526 0.236116 30.799852 -0.004090 -0.017483 -0.029957 -2.573725 0.579056 2.035795 0.000000 0.000000 0.000000 -4.779503 -4.488062 0.203651 5.403367 5.037866 -0.575324 -9.599863 13.119310 5.247209 13.060892 -13.131299 -0.517593 0.000000 0.000000 0.000000 0.000000 0.000000 0.000000 -2.760104 -1.861876 1.810553 3.423767 2.340421 -1.868658 0.153073 3.070709 0.087154 0.403659 -6.758715 0.488566 0.000000 0.000000 0.000000 0.000000 0.000000 0.000000 5.720233 -0.107796 30.741665 -3.930726 3.650105 0.161416 -3.850482 -9.584859 20.942925 0.000000 0.000000 0.000000 -5.206530 7.611171 32.111775 6.179239 -9.341223 0.273793 -8.170124 1.002961 6.541741 0.000000 0.000000 0.000000
100.827684 84.404247 344.714645 -1.100824 -0.583760 -30.291427 0.306935 0.261577 30.258076 0.012203 -0.027905 -0.032938 -2.260780 0.487557 1.899888 0.000000 0.000000 0.000000 -4.505294 -4.288986 0.207652 5.231972 4.793722 -0.541832 -9.162908 11.565738 3.786102 11.169984 -13.904531 -0.065861 0.000000 0.000000 0.000000 0.000000 0.000000 0.000000 -2.247559 -2.448329 1.937958 3.041789 2.885250 -2.008357 0.409352 3.755195 0.159296 -1.321732 -8.844006 0.075735 0.000000 0.000000 0.000000 0.000000 0.000000 0.000000 6.409997 0.005963 30.200056 -6.016842 5.705004 0.514236 -1.260191 -8.702526 12.583000 0.000000 0.000000 0.000000 -3.803894 7.443872 31.616171 4.709551 -6.963317 -0.253024 -10.200359 0.442771 7.004535 0.000000 0.000000 0.000000
100.715040 84.339380 344.795331 -1.143243 -0.544235 -29.087934 0.322195 0.274533 29.054433 0.013960 -0.038929 -0.033315 -2.016920 0.222445 1.715480 0.000000 0.000000 0.000000 -4.016145 -3.645181 0.207880 4.757018 4.116151 -0.452805 -9.659901 11.861440 3.709029 11.871919 -15.407516 0.518844 0.000000 0.000000 0.000000 0.000000 0.000000 0.000000 -2.611538 -2.777100 2.130552 3.625280 4.072350 -2.380798 1.119527 4.396944 0.530652 -0.528863 -12.203653 0.566300 0.000000 0.000000 0.000000 0.000000 0.000000 0.000000 7.274645 -0.061958 29.004179 -9.523426 8.983608 1.200408 3.282048 -8.465258 2.431429 0.000000 0.000000 0.000000 -3.286206 7.309811 30.374982 5.212456 -6.686408 -0.169772 -13.643397 1.930712 6.202974 0.000000 0.000000 0.000000
100.548337 84.250783 344.917339 -1.206619 -0.478577 -28.579484 0.328626 0.280117 28.545312 0.011733 -0.051832 -0.034923 -1.729766 -0.094912 1.521599 0.000000 0.000000 0.000000 -3.486386 -3.151845 0.205364 4.279271 3.570289 -0.380511 -9.404756 12.461175 4.628082 10.116231 -16.452886 -1.058381 0.000000 0.000000 0.000000 0.000000 0.000000 0.000000 -3.449853 -2.894575 2.337134 5.093190 4.632590 -2.642084 2.057088 3.411544 0.880395 -5.101277 -10.974013 -1.083100 0.000000 0.000000 0.000000 0.000000 0.000000 0.000000 7.748046 -0.115660 28.502454 -12.919537 12.442935 2.152813 8.572607 -9.120278 -7.385037 0.000000 0.000000 0.000000 -3.334292 7.445899 29.880083 6.242346 -7.087955 0.039819 -16.580888 3.282054 5.410759 0.000000 0.000000 0.000000
